<svg xmlns="http://www.w3.org/2000/svg" viewBox="0 0 900 495" width="900" height="495"><rect width="900" height="495" fill="#FFFFFF"/><defs><marker id="a" viewBox="0 0 10 10" refX="9" refY="5" markerWidth="7" markerHeight="7" orient="auto-start-reverse"><path d="M0,0 L10,5 L0,10 z" fill="#5C6B6A"/></marker><marker id="b" viewBox="0 0 10 10" refX="9" refY="5" markerWidth="7" markerHeight="7" orient="auto-start-reverse"><path d="M0,0 L10,5 L0,10 z" fill="#0E5E5B"/></marker><marker id="c" viewBox="0 0 10 10" refX="9" refY="5" markerWidth="7" markerHeight="7" orient="auto-start-reverse"><path d="M0,0 L10,5 L0,10 z" fill="#D0802A"/></marker></defs><g font-family="Segoe UI, Arial, Helvetica, sans-serif" fill="#1C2526"><text x="450.0" y="32.0" font-size="17" text-anchor="middle" fill="#0E5E5B" font-weight="bold" font-style="normal">Design thinking</text><rect x="40" y="50" width="148" height="60" rx="6" fill="#EAF4F3" stroke="#0E5E5B" stroke-width="2"/><text x="114.0" y="85.2" font-size="15" text-anchor="middle" fill="#1C2526" font-weight="bold" font-style="normal">Empathise</text><line x1="190.0" y1="80.0" x2="206.0" y2="80.0" stroke="#0E5E5B" stroke-width="2" marker-end="url(#b)"/><rect x="208" y="50" width="148" height="60" rx="6" fill="#EAF4F3" stroke="#0E5E5B" stroke-width="2"/><text x="282.0" y="85.2" font-size="15" text-anchor="middle" fill="#1C2526" font-weight="bold" font-style="normal">Define</text><line x1="358.0" y1="80.0" x2="374.0" y2="80.0" stroke="#0E5E5B" stroke-width="2" marker-end="url(#b)"/><rect x="376" y="50" width="148" height="60" rx="6" fill="#EAF4F3" stroke="#0E5E5B" stroke-width="2"/><text x="450.0" y="85.2" font-size="15" text-anchor="middle" fill="#1C2526" font-weight="bold" font-style="normal">Ideate</text><line x1="526.0" y1="80.0" x2="542.0" y2="80.0" stroke="#0E5E5B" stroke-width="2" marker-end="url(#b)"/><rect x="544" y="50" width="148" height="60" rx="6" fill="#EAF4F3" stroke="#0E5E5B" stroke-width="2"/><text x="618.0" y="85.2" font-size="15" text-anchor="middle" fill="#1C2526" font-weight="bold" font-style="normal">Prototype</text><line x1="694.0" y1="80.0" x2="710.0" y2="80.0" stroke="#0E5E5B" stroke-width="2" marker-end="url(#b)"/><rect x="712" y="50" width="148" height="60" rx="6" fill="#EAF4F3" stroke="#0E5E5B" stroke-width="2"/><text x="786.0" y="85.2" font-size="15" text-anchor="middle" fill="#1C2526" font-weight="bold" font-style="normal">Test</text><path d="M 784,112 C 784,170 114,170 114,114" fill="none" stroke="#D0802A" stroke-width="2" stroke-dasharray="7 5" marker-end="url(#c)"/><text x="450.0" y="182.0" font-size="13" text-anchor="middle" fill="#5C6B6A" font-weight="normal" font-style="italic">Tests send the team back to earlier stages</text><text x="450.0" y="222.0" font-size="17" text-anchor="middle" fill="#0E5E5B" font-weight="bold" font-style="normal">Build, measure, learn</text><rect x="365" y="250" width="170" height="60" rx="6" fill="#EAF4F3" stroke="#0E5E5B" stroke-width="2"/><text x="450.0" y="275.9" font-size="14" text-anchor="middle" fill="#1C2526" font-weight="bold" font-style="normal">Build</text><text x="450.0" y="293.9" font-size="14" text-anchor="middle" fill="#1C2526" font-weight="normal" font-style="normal">the smallest test</text><rect x="480" y="420" width="170" height="60" rx="6" fill="#FBF1E4" stroke="#D0802A" stroke-width="2"/><text x="565.0" y="445.9" font-size="14" text-anchor="middle" fill="#1C2526" font-weight="bold" font-style="normal">Measure</text><text x="565.0" y="463.9" font-size="14" text-anchor="middle" fill="#1C2526" font-weight="normal" font-style="normal">real users' response</text><rect x="250" y="420" width="170" height="60" rx="6" fill="#EAF4F3" stroke="#0E5E5B" stroke-width="2"/><text x="335.0" y="445.9" font-size="14" text-anchor="middle" fill="#1C2526" font-weight="bold" font-style="normal">Learn</text><text x="335.0" y="463.9" font-size="14" text-anchor="middle" fill="#1C2526" font-weight="normal" font-style="normal">continue, pivot or stop</text><line x1="510.0" y1="312.0" x2="560.0" y2="416.0" stroke="#0E5E5B" stroke-width="2" marker-end="url(#b)"/><line x1="478.0" y1="450.0" x2="424.0" y2="450.0" stroke="#0E5E5B" stroke-width="2" marker-end="url(#b)"/><line x1="340.0" y1="416.0" x2="390.0" y2="312.0" stroke="#0E5E5B" stroke-width="2" marker-end="url(#b)"/><text x="450.0" y="380.0" font-size="13" text-anchor="middle" fill="#5C6B6A" font-weight="normal" font-style="normal">Ideas, product, data</text></g></svg>