<svg xmlns="http://www.w3.org/2000/svg" viewBox="0 0 900 490" width="900" height="490"><rect width="900" height="490" fill="#FFFFFF"/><defs><marker id="a" viewBox="0 0 10 10" refX="9" refY="5" markerWidth="7" markerHeight="7" orient="auto-start-reverse"><path d="M0,0 L10,5 L0,10 z" fill="#5E6B78"/></marker><marker id="b" viewBox="0 0 10 10" refX="9" refY="5" markerWidth="7" markerHeight="7" orient="auto-start-reverse"><path d="M0,0 L10,5 L0,10 z" fill="#1F4E79"/></marker></defs><g font-family="Segoe UI, Arial, Helvetica, sans-serif" fill="#1E2430"><line x1="140" y1="400" x2="860" y2="400" stroke="#1E2430" stroke-width="1.5"/><line x1="140" y1="400.0" x2="860" y2="400.0" stroke="#E3E7EC" stroke-width="1"/><text x="134.0" y="405.0" font-size="12" text-anchor="end" fill="#5E6B78" font-weight="normal" font-style="normal">0</text><line x1="140" y1="332.0" x2="860" y2="332.0" stroke="#E3E7EC" stroke-width="1"/><text x="134.0" y="337.0" font-size="12" text-anchor="end" fill="#5E6B78" font-weight="normal" font-style="normal">20</text><line x1="140" y1="264.0" x2="860" y2="264.0" stroke="#E3E7EC" stroke-width="1"/><text x="134.0" y="269.0" font-size="12" text-anchor="end" fill="#5E6B78" font-weight="normal" font-style="normal">40</text><line x1="140" y1="196.0" x2="860" y2="196.0" stroke="#E3E7EC" stroke-width="1"/><text x="134.0" y="201.0" font-size="12" text-anchor="end" fill="#5E6B78" font-weight="normal" font-style="normal">60</text><line x1="140" y1="128.0" x2="860" y2="128.0" stroke="#E3E7EC" stroke-width="1"/><text x="134.0" y="133.0" font-size="12" text-anchor="end" fill="#5E6B78" font-weight="normal" font-style="normal">80</text><line x1="140" y1="60.0" x2="860" y2="60.0" stroke="#E3E7EC" stroke-width="1"/><text x="134.0" y="65.0" font-size="12" text-anchor="end" fill="#5E6B78" font-weight="normal" font-style="normal">100</text><text x="60" y="230.0" font-size="13" fill="#5E6B78" text-anchor="middle" transform="rotate(-90 60 230.0)">Points on a 100-point scale</text><rect x="230" y="128.0" width="90" height="272.0" fill="#2E7D5B"/><text x="275.0" y="120.0" font-size="13" text-anchor="middle" fill="#2E7D5B" font-weight="bold" font-style="normal">Benefit 80</text><rect x="340" y="298.0" width="90" height="102.0" fill="#1F4E79" stroke="#FFFFFF" stroke-width="1"/><text x="385.0" y="354.0" font-size="13" text-anchor="middle" fill="#FFFFFF" font-weight="bold" font-style="normal">30</text><rect x="340" y="230.0" width="90" height="68.0" fill="#5B84AE" stroke="#FFFFFF" stroke-width="1"/><text x="385.0" y="269.0" font-size="13" text-anchor="middle" fill="#FFFFFF" font-weight="bold" font-style="normal">20</text><rect x="340" y="213.0" width="90" height="17.0" fill="#A9C0D8" stroke="#FFFFFF" stroke-width="1"/><text x="385.0" y="205.0" font-size="13" text-anchor="middle" fill="#1F4E79" font-weight="bold" font-style="normal">Cost 55</text><line x1="436" y1="128.0" x2="436" y2="213.0" stroke="#C8553D" stroke-width="3"/><text x="444.0" y="175.5" font-size="14" text-anchor="start" fill="#C8553D" font-weight="bold" font-style="normal">Value 25</text><text x="330.0" y="424.0" font-size="15" text-anchor="middle" fill="#1E2430" font-weight="bold" font-style="normal">Laboratory A</text><rect x="560" y="145.0" width="90" height="255.0" fill="#2E7D5B"/><text x="605.0" y="137.0" font-size="13" text-anchor="middle" fill="#2E7D5B" font-weight="bold" font-style="normal">Benefit 75</text><rect x="670" y="281.0" width="90" height="119.0" fill="#1F4E79" stroke="#FFFFFF" stroke-width="1"/><text x="715.0" y="345.5" font-size="13" text-anchor="middle" fill="#FFFFFF" font-weight="bold" font-style="normal">35</text><rect x="670" y="264.0" width="90" height="17.0" fill="#5B84AE" stroke="#FFFFFF" stroke-width="1"/><rect x="670" y="247.0" width="90" height="17.0" fill="#A9C0D8" stroke="#FFFFFF" stroke-width="1"/><text x="715.0" y="239.0" font-size="13" text-anchor="middle" fill="#1F4E79" font-weight="bold" font-style="normal">Cost 45</text><line x1="766" y1="145.0" x2="766" y2="247.0" stroke="#C8553D" stroke-width="3"/><text x="774.0" y="201.0" font-size="14" text-anchor="start" fill="#C8553D" font-weight="bold" font-style="normal">Value 30</text><text x="660.0" y="424.0" font-size="15" text-anchor="middle" fill="#1E2430" font-weight="bold" font-style="normal">Laboratory B</text><rect x="150" y="455" width="16" height="14" fill="#2E7D5B"/><text x="172.0" y="467.0" font-size="13" text-anchor="start" fill="#1E2430" font-weight="normal" font-style="normal">Perceived benefit</text><rect x="307.5" y="455" width="16" height="14" fill="#1F4E79"/><text x="329.5" y="467.0" font-size="13" text-anchor="start" fill="#1E2430" font-weight="normal" font-style="normal">Money</text><rect x="375.0" y="455" width="16" height="14" fill="#5B84AE"/><text x="397.0" y="467.0" font-size="13" text-anchor="start" fill="#1E2430" font-weight="normal" font-style="normal">Travel and waiting</text><rect x="540.0" y="455" width="16" height="14" fill="#A9C0D8"/><text x="562.0" y="467.0" font-size="13" text-anchor="start" fill="#1E2430" font-weight="normal" font-style="normal">Anxiety</text><text x="450.0" y="40.0" font-size="17" text-anchor="middle" fill="#1F4E79" font-weight="bold" font-style="normal">Customer value = perceived benefit − total customer cost</text></g></svg>