<svg xmlns="http://www.w3.org/2000/svg" viewBox="0 0 800 450" width="800" height="450"><rect width="800" height="450" fill="#FFFFFF"/><g font-family="Segoe UI, Arial, Helvetica, sans-serif" fill="#1D2A38"><defs><marker id="a" viewBox="0 0 10 10" refX="9" refY="5" markerWidth="7" markerHeight="7" orient="auto-start-reverse"><path d="M0,0 L10,5 L0,10 z" fill="#5A6470"/></marker></defs><text x="370.0" y="28" font-size="14.5" fill="#104C4A" text-anchor="middle" font-weight="bold">Each dose starts from what the last one left</text><line x1="90" y1="98.30961509185107" x2="650" y2="98.30961509185107" stroke="#B26B00" stroke-width="1.2" stroke-dasharray="6 4"/><text x="658" y="103.30961509185107" font-size="12" fill="#B26B00" text-anchor="start" font-weight="bold">Css,max 66.7</text><line x1="90" y1="209.22799422799423" x2="650" y2="209.22799422799423" stroke="#104C4A" stroke-width="1.2" stroke-dasharray="6 4"/><text x="658" y="214.22799422799423" font-size="12" fill="#104C4A" text-anchor="start" font-weight="bold">Css,av 36.1</text><line x1="90" y1="279.5596150918511" x2="650" y2="279.5596150918511" stroke="#5A6470" stroke-width="1.2" stroke-dasharray="6 4"/><text x="658" y="284.5596150918511" font-size="12" fill="#5A6470" text-anchor="start" font-weight="bold">Css,min 16.7</text><path d="M90.0,158.8 L91.6,162.9 L93.1,166.9 L94.7,170.9 L96.2,174.7 L97.8,178.5 L99.3,182.2 L100.9,185.8 L102.4,189.3 L104.0,192.8 L105.6,196.1 L107.1,199.4 L108.7,202.6 L110.2,205.8 L111.8,208.8 L113.3,211.8 L114.9,214.8 L116.4,217.6 L118.0,220.4 L119.6,223.1 L121.1,225.8 L122.7,228.4 L124.2,231.0 L125.8,233.5 L127.3,235.9 L128.9,238.3 L130.4,240.6 L132.0,242.9 L133.6,245.1 L135.1,247.2 L136.7,249.4 L138.2,251.4 L139.8,253.5 L141.3,255.4 L142.9,257.4 L144.4,259.2 L146.0,261.1 L147.6,262.9 L149.1,264.7 L150.7,266.4 L152.2,268.1 L153.8,269.7 L155.3,271.3 L156.9,272.9 L158.4,274.4 L160.0,275.9 L161.6,277.4 L163.1,278.8 L164.7,280.2 L166.2,281.6 L167.8,282.9 L169.3,284.2 L170.9,285.5 L172.4,286.7 L174.0,287.9 L175.6,289.1 L177.1,290.3 L178.7,291.4 L180.2,292.5 L181.8,293.6 L183.3,294.7 L184.9,295.7 L186.4,296.7 L188.0,297.7 L189.6,298.7 L191.1,299.6 L192.7,300.5 L194.2,301.4 L195.8,302.3 L197.3,303.2 L198.9,304.0 L200.4,304.8 L202.0,305.6 L203.6,306.4 L205.1,307.2 L206.7,307.9 L208.2,308.7 L209.8,309.4 L211.3,310.1 L212.9,310.8 L214.4,311.4 L216.0,312.1 L217.6,312.7 L219.1,313.4 L220.7,314.0 L222.2,314.6 L223.8,315.1 L225.3,315.7 L226.9,316.3 L228.4,316.8 L230.0,317.3 L231.6,317.9 L233.1,318.4 L234.7,318.9 L236.2,319.3 L237.8,319.8 L239.3,320.3 L240.9,320.7 L242.4,321.2 L244.0,321.6 L245.6,322.0 L247.1,322.4 L248.7,322.8 L250.2,323.2 L251.8,323.6 L253.3,324.0 L254.9,324.3 L256.4,324.7 L258.0,325.0 L259.6,325.4 L261.1,325.7 L262.7,326.0 L264.2,326.4 L265.8,326.7 L267.3,327.0 L268.9,327.3 L270.4,327.6 L272.0,327.9 L273.6,328.1 L275.1,328.4 L276.7,328.7 L278.2,328.9 L279.8,329.2 L281.3,329.4 L282.9,329.7 L284.4,329.9 L286.0,330.1 L287.6,330.4 L289.1,330.6 L290.7,330.8 L292.2,331.0 L293.8,331.2 L295.3,331.4 L296.9,331.6 L298.4,331.8 L300.0,332.0 L301.6,332.2 L303.1,332.3 L304.7,332.5 L306.2,332.7 L307.8,332.9 L309.3,333.0 L310.9,333.2 L312.4,333.3 L314.0,333.5 L315.6,333.6 L317.1,333.8 L318.7,333.9 L320.2,334.1 L321.8,334.2 L323.3,334.3 L324.9,334.5 L326.4,334.6 L328.0,334.7 L329.6,334.8 L331.1,335.0 L332.7,335.1 L334.2,335.2 L335.8,335.3 L337.3,335.4 L338.9,335.5 L340.4,335.6 L342.0,335.7 L343.6,335.8 L345.1,335.9 L346.7,336.0 L348.2,336.1 L349.8,336.2 L351.3,336.3 L352.9,336.3 L354.4,336.4 L356.0,336.5 L357.6,336.6 L359.1,336.7 L360.7,336.7 L362.2,336.8 L363.8,336.9 L365.3,337.0 L366.9,337.0 L368.4,337.1 L370.0,337.2 L371.6,337.2 L373.1,337.3 L374.7,337.4 L376.2,337.4 L377.8,337.5 L379.3,337.5 L380.9,337.6 L382.4,337.6 L384.0,337.7 L385.6,337.8 L387.1,337.8 L388.7,337.9 L390.2,337.9 L391.8,337.9 L393.3,338.0 L394.9,338.0 L396.4,338.1 L398.0,338.1 L399.6,338.2 L401.1,338.2 L402.7,338.3 L404.2,338.3 L405.8,338.3 L407.3,338.4 L408.9,338.4 L410.4,338.4 L412.0,338.5 L413.6,338.5 L415.1,338.5 L416.7,338.6 L418.2,338.6 L419.8,338.6 L421.3,338.7 L422.9,338.7 L424.4,338.7 L426.0,338.8 L427.6,338.8 L429.1,338.8 L430.7,338.8 L432.2,338.9 L433.8,338.9 L435.3,338.9 L436.9,339.0 L438.4,339.0 L440.0,339.0 L441.6,339.0 L443.1,339.0 L444.7,339.1 L446.2,339.1 L447.8,339.1 L449.3,339.1 L450.9,339.1 L452.4,339.2 L454.0,339.2 L455.6,339.2 L457.1,339.2 L458.7,339.2 L460.2,339.3 L461.8,339.3 L463.3,339.3 L464.9,339.3 L466.4,339.3 L468.0,339.3 L469.6,339.4 L471.1,339.4 L472.7,339.4 L474.2,339.4 L475.8,339.4 L477.3,339.4 L478.9,339.4 L480.4,339.5 L482.0,339.5 L483.6,339.5 L485.1,339.5 L486.7,339.5 L488.2,339.5 L489.8,339.5 L491.3,339.5 L492.9,339.5 L494.4,339.6 L496.0,339.6 L497.6,339.6 L499.1,339.6 L500.7,339.6 L502.2,339.6 L503.8,339.6 L505.3,339.6 L506.9,339.6 L508.4,339.6 L510.0,339.6 L511.6,339.7 L513.1,339.7 L514.7,339.7 L516.2,339.7 L517.8,339.7 L519.3,339.7 L520.9,339.7 L522.4,339.7 L524.0,339.7 L525.6,339.7 L527.1,339.7 L528.7,339.7 L530.2,339.7 L531.8,339.7 L533.3,339.7 L534.9,339.8 L536.4,339.8 L538.0,339.8 L539.6,339.8 L541.1,339.8 L542.7,339.8 L544.2,339.8 L545.8,339.8 L547.3,339.8 L548.9,339.8 L550.4,339.8 L552.0,339.8 L553.6,339.8 L555.1,339.8 L556.7,339.8 L558.2,339.8 L559.8,339.8 L561.3,339.8 L562.9,339.8 L564.4,339.8 L566.0,339.8 L567.6,339.8 L569.1,339.9 L570.7,339.9 L572.2,339.9 L573.8,339.9 L575.3,339.9 L576.9,339.9 L578.4,339.9 L580.0,339.9 L581.6,339.9 L583.1,339.9 L584.7,339.9 L586.2,339.9 L587.8,339.9 L589.3,339.9 L590.9,339.9 L592.4,339.9 L594.0,339.9 L595.6,339.9 L597.1,339.9 L598.7,339.9 L600.2,339.9 L601.8,339.9 L603.3,339.9 L604.9,339.9 L606.4,339.9 L608.0,339.9 L609.6,339.9 L611.1,339.9 L612.7,339.9 L614.2,339.9 L615.8,339.9 L617.3,339.9 L618.9,339.9 L620.4,339.9 L622.0,339.9 L623.6,339.9 L625.1,339.9 L626.7,339.9 L628.2,339.9 L629.8,339.9 L631.3,339.9 L632.9,339.9 L634.4,339.9 L636.0,339.9 L637.6,339.9 L639.1,339.9 L640.7,339.9 L642.2,340.0 L643.8,340.0 L645.3,340.0 L646.9,340.0 L648.4,340.0 L650.0,340.0" fill="none" stroke="#5A6470" stroke-width="1.6" stroke-dasharray="3 4"/><text x="217.55555555555554" y="298.3125" font-size="11.5" fill="#5A6470" text-anchor="start" stroke="#FFFFFF" stroke-width="4" paint-order="stroke">one dose alone</text><path d="M90.0,340.0 L90.0,158.8 L90.8,160.8 L91.6,162.9 L92.3,164.9 L93.1,166.9 L93.9,168.9 L94.7,170.9 L95.4,172.8 L96.2,174.7 L97.0,176.6 L97.8,178.5 L98.6,180.4 L99.3,182.2 L100.1,184.0 L100.9,185.8 L101.7,187.6 L102.4,189.3 L103.2,191.1 L104.0,192.8 L104.8,194.5 L105.6,196.1 L106.3,197.8 L107.1,199.4 L107.9,201.0 L108.7,202.6 L109.4,204.2 L110.2,205.8 L111.0,207.3 L111.8,208.8 L112.6,210.3 L113.3,211.8 L114.1,213.3 L114.9,214.8 L115.7,216.2 L116.4,217.6 L117.2,219.0 L118.0,220.4 L118.8,221.8 L119.6,223.1 L120.3,224.5 L121.1,225.8 L121.9,227.1 L122.7,228.4 L123.4,229.7 L124.2,231.0 L125.0,232.2 L125.8,233.5 L126.6,234.7 L127.3,235.9 L128.1,237.1 L128.9,238.3 L129.7,239.4 L130.4,240.6 L131.2,241.7 L132.0,242.9 L132.8,244.0 L133.6,245.1 L134.3,246.2 L135.1,247.2 L135.9,248.3 L136.7,249.4 L137.4,250.4 L138.2,251.4 L139.0,252.4 L139.8,253.5 L140.6,254.4 L141.3,255.4 L142.1,256.4 L142.9,257.4 L143.7,258.3 L144.4,259.2 L145.2,260.2 L146.0,261.1 L146.8,262.0 L147.6,262.9 L148.3,263.8 L149.1,264.7 L149.9,265.5 L150.7,266.4 L151.4,267.2 L152.2,268.1 L153.0,268.9 L153.8,269.7 L154.6,270.5 L155.3,271.3 L156.1,272.1 L156.9,272.9 L157.7,273.6 L158.4,274.4 L159.2,275.2 L160.0,275.9 L160.8,276.6 L161.6,277.4 L162.3,278.1 L163.1,278.8 L163.9,279.5 L164.7,280.2 L165.4,280.9 L166.2,281.6 L167.0,282.2 L167.8,282.9 L168.6,283.6 L169.3,284.2 L170.1,284.8 L170.9,285.5 L171.7,286.1 L172.4,286.7 L173.2,287.3 L174.0,287.9 L174.8,288.5 L175.6,289.1 L176.3,289.7 L177.1,290.3 L177.9,290.9 L178.7,291.4 L179.4,292.0 L180.2,292.5 L181.0,293.1 L181.8,293.6 L182.6,294.1 L183.3,294.7" fill="none" stroke="#104C4A" stroke-width="2.6"/><path d="M183.3,294.7 L183.3,113.4 L184.1,116.0 L184.9,118.6 L185.7,121.1 L186.4,123.7 L187.2,126.1 L188.0,128.6 L188.8,131.0 L189.6,133.4 L190.3,135.8 L191.1,138.1 L191.9,140.5 L192.7,142.7 L193.4,145.0 L194.2,147.3 L195.0,149.5 L195.8,151.7 L196.6,153.8 L197.3,156.0 L198.1,158.1 L198.9,160.2 L199.7,162.2 L200.4,164.3 L201.2,166.3 L202.0,168.3 L202.8,170.2 L203.6,172.2 L204.3,174.1 L205.1,176.0 L205.9,177.9 L206.7,179.8 L207.4,181.6 L208.2,183.4 L209.0,185.2 L209.8,187.0 L210.6,188.8 L211.3,190.5 L212.1,192.2 L212.9,193.9 L213.7,195.6 L214.4,197.3 L215.2,198.9 L216.0,200.5 L216.8,202.1 L217.6,203.7 L218.3,205.3 L219.1,206.8 L219.9,208.3 L220.7,209.9 L221.4,211.3 L222.2,212.8 L223.0,214.3 L223.8,215.7 L224.6,217.2 L225.3,218.6 L226.1,220.0 L226.9,221.3 L227.7,222.7 L228.4,224.0 L229.2,225.4 L230.0,226.7 L230.8,228.0 L231.6,229.3 L232.3,230.6 L233.1,231.8 L233.9,233.1 L234.7,234.3 L235.4,235.5 L236.2,236.7 L237.0,237.9 L237.8,239.1 L238.6,240.2 L239.3,241.4 L240.1,242.5 L240.9,243.6 L241.7,244.7 L242.4,245.8 L243.2,246.9 L244.0,248.0 L244.8,249.0 L245.6,250.1 L246.3,251.1 L247.1,252.1 L247.9,253.1 L248.7,254.1 L249.4,255.1 L250.2,256.1 L251.0,257.1 L251.8,258.0 L252.6,258.9 L253.3,259.9 L254.1,260.8 L254.9,261.7 L255.7,262.6 L256.4,263.5 L257.2,264.4 L258.0,265.2 L258.8,266.1 L259.6,266.9 L260.3,267.8 L261.1,268.6 L261.9,269.4 L262.7,270.2 L263.4,271.0 L264.2,271.8 L265.0,272.6 L265.8,273.4 L266.6,274.2 L267.3,274.9 L268.1,275.7 L268.9,276.4 L269.7,277.1 L270.4,277.9 L271.2,278.6 L272.0,279.3 L272.8,280.0 L273.6,280.7 L274.3,281.3 L275.1,282.0 L275.9,282.7 L276.7,283.3" fill="none" stroke="#104C4A" stroke-width="2.6"/><path d="M276.7,283.3 L276.7,102.1 L277.4,104.8 L278.2,107.5 L279.0,110.2 L279.8,112.8 L280.6,115.4 L281.3,118.0 L282.1,120.6 L282.9,123.1 L283.7,125.6 L284.4,128.0 L285.2,130.5 L286.0,132.9 L286.8,135.3 L287.6,137.6 L288.3,139.9 L289.1,142.2 L289.9,144.5 L290.7,146.7 L291.4,149.0 L292.2,151.2 L293.0,153.3 L293.8,155.5 L294.6,157.6 L295.3,159.7 L296.1,161.8 L296.9,163.8 L297.7,165.8 L298.4,167.8 L299.2,169.8 L300.0,171.8 L300.8,173.7 L301.6,175.6 L302.3,177.5 L303.1,179.4 L303.9,181.2 L304.7,183.0 L305.4,184.8 L306.2,186.6 L307.0,188.4 L307.8,190.1 L308.6,191.8 L309.3,193.5 L310.1,195.2 L310.9,196.9 L311.7,198.5 L312.4,200.1 L313.2,201.8 L314.0,203.3 L314.8,204.9 L315.6,206.5 L316.3,208.0 L317.1,209.5 L317.9,211.0 L318.7,212.5 L319.4,214.0 L320.2,215.4 L321.0,216.8 L321.8,218.2 L322.6,219.6 L323.3,221.0 L324.1,222.4 L324.9,223.7 L325.7,225.1 L326.4,226.4 L327.2,227.7 L328.0,229.0 L328.8,230.3 L329.6,231.5 L330.3,232.8 L331.1,234.0 L331.9,235.2 L332.7,236.4 L333.4,237.6 L334.2,238.8 L335.0,240.0 L335.8,241.1 L336.6,242.2 L337.3,243.4 L338.1,244.5 L338.9,245.6 L339.7,246.7 L340.4,247.7 L341.2,248.8 L342.0,249.8 L342.8,250.9 L343.6,251.9 L344.3,252.9 L345.1,253.9 L345.9,254.9 L346.7,255.9 L347.4,256.8 L348.2,257.8 L349.0,258.7 L349.8,259.7 L350.6,260.6 L351.3,261.5 L352.1,262.4 L352.9,263.3 L353.7,264.2 L354.4,265.0 L355.2,265.9 L356.0,266.8 L356.8,267.6 L357.6,268.4 L358.3,269.3 L359.1,270.1 L359.9,270.9 L360.7,271.7 L361.4,272.4 L362.2,273.2 L363.0,274.0 L363.8,274.7 L364.6,275.5 L365.3,276.2 L366.1,277.0 L366.9,277.7 L367.7,278.4 L368.4,279.1 L369.2,279.8 L370.0,280.5" fill="none" stroke="#104C4A" stroke-width="2.6"/><path d="M370.0,280.5 L370.0,99.3 L370.8,102.0 L371.6,104.8 L372.3,107.5 L373.1,110.1 L373.9,112.8 L374.7,115.4 L375.4,118.0 L376.2,120.5 L377.0,123.0 L377.8,125.5 L378.6,128.0 L379.3,130.4 L380.1,132.8 L380.9,135.2 L381.7,137.6 L382.4,139.9 L383.2,142.2 L384.0,144.4 L384.8,146.7 L385.6,148.9 L386.3,151.1 L387.1,153.3 L387.9,155.4 L388.7,157.5 L389.4,159.6 L390.2,161.7 L391.0,163.8 L391.8,165.8 L392.6,167.8 L393.3,169.8 L394.1,171.7 L394.9,173.6 L395.7,175.6 L396.4,177.4 L397.2,179.3 L398.0,181.2 L398.8,183.0 L399.6,184.8 L400.3,186.6 L401.1,188.3 L401.9,190.1 L402.7,191.8 L403.4,193.5 L404.2,195.2 L405.0,196.8 L405.8,198.5 L406.6,200.1 L407.3,201.7 L408.1,203.3 L408.9,204.9 L409.7,206.4 L410.4,208.0 L411.2,209.5 L412.0,211.0 L412.8,212.5 L413.6,213.9 L414.3,215.4 L415.1,216.8 L415.9,218.2 L416.7,219.6 L417.4,221.0 L418.2,222.4 L419.0,223.7 L419.8,225.0 L420.6,226.4 L421.3,227.7 L422.1,229.0 L422.9,230.2 L423.7,231.5 L424.4,232.7 L425.2,234.0 L426.0,235.2 L426.8,236.4 L427.6,237.6 L428.3,238.8 L429.1,239.9 L429.9,241.1 L430.7,242.2 L431.4,243.3 L432.2,244.4 L433.0,245.5 L433.8,246.6 L434.6,247.7 L435.3,248.8 L436.1,249.8 L436.9,250.8 L437.7,251.9 L438.4,252.9 L439.2,253.9 L440.0,254.9 L440.8,255.8 L441.6,256.8 L442.3,257.8 L443.1,258.7 L443.9,259.6 L444.7,260.6 L445.4,261.5 L446.2,262.4 L447.0,263.3 L447.8,264.2 L448.6,265.0 L449.3,265.9 L450.1,266.7 L450.9,267.6 L451.7,268.4 L452.4,269.2 L453.2,270.0 L454.0,270.8 L454.8,271.6 L455.6,272.4 L456.3,273.2 L457.1,274.0 L457.9,274.7 L458.7,275.5 L459.4,276.2 L460.2,276.9 L461.0,277.7 L461.8,278.4 L462.6,279.1 L463.3,279.8" fill="none" stroke="#104C4A" stroke-width="2.6"/><path d="M463.3,279.8 L463.3,98.5 L464.1,101.3 L464.9,104.1 L465.7,106.8 L466.4,109.4 L467.2,112.1 L468.0,114.7 L468.8,117.3 L469.6,119.9 L470.3,122.4 L471.1,124.9 L471.9,127.4 L472.7,129.8 L473.4,132.2 L474.2,134.6 L475.0,137.0 L475.8,139.3 L476.6,141.6 L477.3,143.9 L478.1,146.1 L478.9,148.3 L479.7,150.5 L480.4,152.7 L481.2,154.9 L482.0,157.0 L482.8,159.1 L483.6,161.2 L484.3,163.2 L485.1,165.3 L485.9,167.3 L486.7,169.3 L487.4,171.2 L488.2,173.2 L489.0,175.1 L489.8,177.0 L490.6,178.8 L491.3,180.7 L492.1,182.5 L492.9,184.3 L493.7,186.1 L494.4,187.9 L495.2,189.6 L496.0,191.4 L496.8,193.1 L497.6,194.7 L498.3,196.4 L499.1,198.1 L499.9,199.7 L500.7,201.3 L501.4,202.9 L502.2,204.5 L503.0,206.0 L503.8,207.6 L504.6,209.1 L505.3,210.6 L506.1,212.1 L506.9,213.5 L507.7,215.0 L508.4,216.4 L509.2,217.9 L510.0,219.3 L510.8,220.6 L511.6,222.0 L512.3,223.4 L513.1,224.7 L513.9,226.0 L514.7,227.3 L515.4,228.6 L516.2,229.9 L517.0,231.2 L517.8,232.4 L518.6,233.7 L519.3,234.9 L520.1,236.1 L520.9,237.3 L521.7,238.5 L522.4,239.6 L523.2,240.8 L524.0,241.9 L524.8,243.0 L525.6,244.2 L526.3,245.3 L527.1,246.3 L527.9,247.4 L528.7,248.5 L529.4,249.5 L530.2,250.6 L531.0,251.6 L531.8,252.6 L532.6,253.6 L533.3,254.6 L534.1,255.6 L534.9,256.6 L535.7,257.5 L536.4,258.5 L537.2,259.4 L538.0,260.3 L538.8,261.2 L539.6,262.2 L540.3,263.0 L541.1,263.9 L541.9,264.8 L542.7,265.7 L543.4,266.5 L544.2,267.4 L545.0,268.2 L545.8,269.0 L546.6,269.8 L547.3,270.6 L548.1,271.4 L548.9,272.2 L549.7,273.0 L550.4,273.8 L551.2,274.5 L552.0,275.3 L552.8,276.0 L553.6,276.8 L554.3,277.5 L555.1,278.2 L555.9,278.9 L556.7,279.6" fill="none" stroke="#104C4A" stroke-width="2.6"/><path d="M556.7,279.6 L556.7,98.4 L557.4,101.1 L558.2,103.9 L559.0,106.6 L559.8,109.3 L560.6,111.9 L561.3,114.5 L562.1,117.1 L562.9,119.7 L563.7,122.2 L564.4,124.7 L565.2,127.2 L566.0,129.6 L566.8,132.1 L567.6,134.4 L568.3,136.8 L569.1,139.1 L569.9,141.4 L570.7,143.7 L571.4,146.0 L572.2,148.2 L573.0,150.4 L573.8,152.6 L574.6,154.7 L575.3,156.9 L576.1,159.0 L576.9,161.0 L577.7,163.1 L578.4,165.1 L579.2,167.1 L580.0,169.1 L580.8,171.1 L581.6,173.0 L582.3,174.9 L583.1,176.8 L583.9,178.7 L584.7,180.6 L585.4,182.4 L586.2,184.2 L587.0,186.0 L587.8,187.8 L588.6,189.5 L589.3,191.2 L590.1,193.0 L590.9,194.6 L591.7,196.3 L592.4,198.0 L593.2,199.6 L594.0,201.2 L594.8,202.8 L595.6,204.4 L596.3,205.9 L597.1,207.5 L597.9,209.0 L598.7,210.5 L599.4,212.0 L600.2,213.5 L601.0,214.9 L601.8,216.3 L602.6,217.8 L603.3,219.2 L604.1,220.6 L604.9,221.9 L605.7,223.3 L606.4,224.6 L607.2,225.9 L608.0,227.3 L608.8,228.6 L609.6,229.8 L610.3,231.1 L611.1,232.3 L611.9,233.6 L612.7,234.8 L613.4,236.0 L614.2,237.2 L615.0,238.4 L615.8,239.6 L616.6,240.7 L617.3,241.8 L618.1,243.0 L618.9,244.1 L619.7,245.2 L620.4,246.3 L621.2,247.4 L622.0,248.4 L622.8,249.5 L623.6,250.5 L624.3,251.5 L625.1,252.6 L625.9,253.6 L626.7,254.6 L627.4,255.5 L628.2,256.5 L629.0,257.5 L629.8,258.4 L630.6,259.3 L631.3,260.3 L632.1,261.2 L632.9,262.1 L633.7,263.0 L634.4,263.9 L635.2,264.7 L636.0,265.6 L636.8,266.5 L637.6,267.3 L638.3,268.1 L639.1,269.0 L639.9,269.8 L640.7,270.6 L641.4,271.4 L642.2,272.2 L643.0,273.0 L643.8,273.7 L644.6,274.5 L645.3,275.2 L646.1,276.0 L646.9,276.7 L647.7,277.4 L648.4,278.2 L649.2,278.9 L650.0,279.6" fill="none" stroke="#104C4A" stroke-width="2.6"/><circle cx="90.0" cy="158.8" r="4.5" fill="#B26B00"/><text x="99.33333333333333" y="152.75" font-size="11.5" fill="#B26B00" text-anchor="start" stroke="#FFFFFF" stroke-width="4" paint-order="stroke">first peak 50</text><line x1="90" y1="44" x2="90" y2="340" stroke="#1D2A38" stroke-width="2"/><line x1="90" y1="340" x2="680" y2="340" stroke="#1D2A38" stroke-width="2"/><text x="34" y="195.0" font-size="15" fill="#1D2A38" text-anchor="middle" transform="rotate(-90 34 195.0)">Cp  (µg·mL⁻¹)</text><text x="370.0" y="388" font-size="15" fill="#1D2A38" text-anchor="middle">Time (h)</text><text x="82" y="345.0" font-size="12" fill="#1D2A38" text-anchor="end">0</text><text x="82" y="272.5" font-size="12" fill="#1D2A38" text-anchor="end">20</text><text x="82" y="200.0" font-size="12" fill="#1D2A38" text-anchor="end">40</text><text x="82" y="127.5" font-size="12" fill="#1D2A38" text-anchor="end">60</text><text x="82" y="55.0" font-size="12" fill="#1D2A38" text-anchor="end">80</text><text x="90.0" y="360" font-size="12" fill="#1D2A38" text-anchor="middle">0</text><text x="183.33333333333331" y="360" font-size="12" fill="#1D2A38" text-anchor="middle">6</text><text x="276.66666666666663" y="360" font-size="12" fill="#1D2A38" text-anchor="middle">12</text><text x="370.0" y="360" font-size="12" fill="#1D2A38" text-anchor="middle">18</text><text x="463.3333333333333" y="360" font-size="12" fill="#1D2A38" text-anchor="middle">24</text><text x="556.6666666666667" y="360" font-size="12" fill="#1D2A38" text-anchor="middle">30</text><text x="650.0" y="360" font-size="12" fill="#1D2A38" text-anchor="middle">36</text><text x="400.0" y="434" font-size="12" fill="#5A6470" text-anchor="middle">1000 mg IV every 6 h, t½ = 3 h, Vd = 20 L. Accumulation index R = 1.33.</text></g></svg>