<svg xmlns="http://www.w3.org/2000/svg" viewBox="0 0 900 390" width="900" height="390"><rect width="900" height="390" fill="#FFFFFF"/><defs><marker id="a" viewBox="0 0 10 10" refX="9" refY="5" markerWidth="7" markerHeight="7" orient="auto-start-reverse"><path d="M0,0 L10,5 L0,10 z" fill="#5E6B78"/></marker></defs><g font-family="Segoe UI, Arial, Helvetica, sans-serif" fill="#1E2430"><text x="20.0" y="62.0" font-size="14" text-anchor="start" fill="#1E2430" font-weight="bold">Zero-level</text><rect x="170" y="30" width="120" height="50" rx="6" fill="#EEF3F9" stroke="#1F4E79" stroke-width="2"/><text x="230.0" y="59.5" font-size="13" text-anchor="middle" fill="#1E2430" font-weight="normal">Producer</text><rect x="762" y="30" width="120" height="50" rx="6" fill="#EEF3F9" stroke="#1F4E79" stroke-width="2"/><text x="822.0" y="59.5" font-size="13" text-anchor="middle" fill="#1E2430" font-weight="normal">Patient</text><line x1="290.0" y1="55.0" x2="760.0" y2="55.0" stroke="#5E6B78" stroke-width="2" marker-end="url(#a)"/><text x="20.0" y="152.0" font-size="14" text-anchor="start" fill="#1E2430" font-weight="bold">One-level</text><rect x="170" y="120" width="120" height="50" rx="6" fill="#EEF3F9" stroke="#1F4E79" stroke-width="2"/><text x="230.0" y="149.6" font-size="13" text-anchor="middle" fill="#1E2430" font-weight="normal">Producer</text><rect x="318" y="120" width="120" height="50" rx="6" fill="#FBEDE9" stroke="#C8553D" stroke-width="2"/><text x="378.0" y="149.6" font-size="13" text-anchor="middle" fill="#1E2430" font-weight="normal">Pharmacy</text><line x1="290.0" y1="145.0" x2="316.0" y2="145.0" stroke="#5E6B78" stroke-width="2" marker-end="url(#a)"/><rect x="466" y="120" width="120" height="50" rx="6" fill="#EEF3F9" stroke="#1F4E79" stroke-width="2"/><text x="526.0" y="149.6" font-size="13" text-anchor="middle" fill="#1E2430" font-weight="normal">Patient</text><line x1="438.0" y1="145.0" x2="464.0" y2="145.0" stroke="#5E6B78" stroke-width="2" marker-end="url(#a)"/><text x="20.0" y="242.0" font-size="14" text-anchor="start" fill="#1E2430" font-weight="bold">Two-level</text><rect x="170" y="210" width="120" height="50" rx="6" fill="#EEF3F9" stroke="#1F4E79" stroke-width="2"/><text x="230.0" y="239.6" font-size="13" text-anchor="middle" fill="#1E2430" font-weight="normal">Producer</text><rect x="318" y="210" width="120" height="50" rx="6" fill="#FBEDE9" stroke="#C8553D" stroke-width="2"/><text x="378.0" y="239.6" font-size="13" text-anchor="middle" fill="#1E2430" font-weight="normal">Wholesaler</text><line x1="290.0" y1="235.0" x2="316.0" y2="235.0" stroke="#5E6B78" stroke-width="2" marker-end="url(#a)"/><rect x="466" y="210" width="120" height="50" rx="6" fill="#FBEDE9" stroke="#C8553D" stroke-width="2"/><text x="526.0" y="239.6" font-size="13" text-anchor="middle" fill="#1E2430" font-weight="normal">Pharmacy</text><line x1="438.0" y1="235.0" x2="464.0" y2="235.0" stroke="#5E6B78" stroke-width="2" marker-end="url(#a)"/><rect x="614" y="210" width="120" height="50" rx="6" fill="#EEF3F9" stroke="#1F4E79" stroke-width="2"/><text x="674.0" y="239.6" font-size="13" text-anchor="middle" fill="#1E2430" font-weight="normal">Patient</text><line x1="586.0" y1="235.0" x2="612.0" y2="235.0" stroke="#5E6B78" stroke-width="2" marker-end="url(#a)"/><text x="20.0" y="332.0" font-size="14" text-anchor="start" fill="#1E2430" font-weight="bold">Three-level</text><rect x="170" y="300" width="120" height="50" rx="6" fill="#EEF3F9" stroke="#1F4E79" stroke-width="2"/><text x="230.0" y="329.6" font-size="13" text-anchor="middle" fill="#1E2430" font-weight="normal">Producer</text><rect x="318" y="300" width="120" height="50" rx="6" fill="#FBEDE9" stroke="#C8553D" stroke-width="2"/><text x="378.0" y="329.6" font-size="13" text-anchor="middle" fill="#1E2430" font-weight="normal">Importer</text><line x1="290.0" y1="325.0" x2="316.0" y2="325.0" stroke="#5E6B78" stroke-width="2" marker-end="url(#a)"/><rect x="466" y="300" width="120" height="50" rx="6" fill="#FBEDE9" stroke="#C8553D" stroke-width="2"/><text x="526.0" y="321.6" font-size="13" text-anchor="middle" fill="#1E2430" font-weight="normal">Regional</text><text x="526.0" y="337.6" font-size="13" text-anchor="middle" fill="#1E2430" font-weight="normal">wholesaler</text><line x1="438.0" y1="325.0" x2="464.0" y2="325.0" stroke="#5E6B78" stroke-width="2" marker-end="url(#a)"/><rect x="614" y="300" width="120" height="50" rx="6" fill="#FBEDE9" stroke="#C8553D" stroke-width="2"/><text x="674.0" y="329.6" font-size="13" text-anchor="middle" fill="#1E2430" font-weight="normal">Pharmacy</text><line x1="586.0" y1="325.0" x2="612.0" y2="325.0" stroke="#5E6B78" stroke-width="2" marker-end="url(#a)"/><rect x="762" y="300" width="120" height="50" rx="6" fill="#EEF3F9" stroke="#1F4E79" stroke-width="2"/><text x="822.0" y="329.6" font-size="13" text-anchor="middle" fill="#1E2430" font-weight="normal">Patient</text><line x1="734.0" y1="325.0" x2="760.0" y2="325.0" stroke="#5E6B78" stroke-width="2" marker-end="url(#a)"/></g></svg>