<svg xmlns="http://www.w3.org/2000/svg" viewBox="0 0 900 400" width="900" height="400"><rect width="900" height="400" fill="#FFFFFF"/><defs><marker id="a" viewBox="0 0 10 10" refX="9" refY="5" markerWidth="7" markerHeight="7" orient="auto-start-reverse"><path d="M0,0 L10,5 L0,10 z" fill="#5E6B78"/></marker></defs><g font-family="Segoe UI, Arial, Helvetica, sans-serif" fill="#1E2430"><text x="230.0" y="34.0" font-size="16" text-anchor="middle" fill="#1F4E79" font-weight="bold">Push strategy</text><rect x="150" y="60" width="160" height="48" rx="6" fill="#EEF3F9" stroke="#1F4E79" stroke-width="2"/><text x="230.0" y="88.9" font-size="14" text-anchor="middle" fill="#1E2430" font-weight="normal">Manufacturer</text><rect x="150" y="144" width="160" height="48" rx="6" fill="#EEF3F9" stroke="#1F4E79" stroke-width="2"/><text x="230.0" y="172.9" font-size="14" text-anchor="middle" fill="#1E2430" font-weight="normal">Wholesaler</text><line x1="230.0" y1="110.0" x2="230.0" y2="142.0" stroke="#1F4E79" stroke-width="2.5" marker-end="url(#a)"/><rect x="150" y="228" width="160" height="48" rx="6" fill="#EEF3F9" stroke="#1F4E79" stroke-width="2"/><text x="230.0" y="256.9" font-size="14" text-anchor="middle" fill="#1E2430" font-weight="normal">Retailer</text><line x1="230.0" y1="194.0" x2="230.0" y2="226.0" stroke="#1F4E79" stroke-width="2.5" marker-end="url(#a)"/><rect x="150" y="312" width="160" height="48" rx="6" fill="#EEF3F9" stroke="#1F4E79" stroke-width="2"/><text x="230.0" y="340.9" font-size="14" text-anchor="middle" fill="#1E2430" font-weight="normal">Consumer</text><line x1="230.0" y1="278.0" x2="230.0" y2="310.0" stroke="#1F4E79" stroke-width="2.5" marker-end="url(#a)"/><text x="340.0" y="214.0" font-size="13" text-anchor="start" fill="#1E2430" font-weight="normal">Promotion passes</text><text x="340.0" y="232.0" font-size="13" text-anchor="start" fill="#1E2430" font-weight="normal">down the channel</text><text x="670.0" y="34.0" font-size="16" text-anchor="middle" fill="#1F4E79" font-weight="bold">Pull strategy</text><rect x="590" y="60" width="160" height="48" rx="6" fill="#EEF3F9" stroke="#1F4E79" stroke-width="2"/><text x="670.0" y="88.9" font-size="14" text-anchor="middle" fill="#1E2430" font-weight="normal">Manufacturer</text><rect x="590" y="144" width="160" height="48" rx="6" fill="#EEF3F9" stroke="#1F4E79" stroke-width="2"/><text x="670.0" y="172.9" font-size="14" text-anchor="middle" fill="#1E2430" font-weight="normal">Wholesaler</text><line x1="670.0" y1="142.0" x2="670.0" y2="110.0" stroke="#C8553D" stroke-width="2.5" marker-end="url(#a)"/><rect x="590" y="228" width="160" height="48" rx="6" fill="#EEF3F9" stroke="#1F4E79" stroke-width="2"/><text x="670.0" y="256.9" font-size="14" text-anchor="middle" fill="#1E2430" font-weight="normal">Retailer</text><line x1="670.0" y1="226.0" x2="670.0" y2="194.0" stroke="#C8553D" stroke-width="2.5" marker-end="url(#a)"/><rect x="590" y="312" width="160" height="48" rx="6" fill="#EEF3F9" stroke="#1F4E79" stroke-width="2"/><text x="670.0" y="340.9" font-size="14" text-anchor="middle" fill="#1E2430" font-weight="normal">Consumer</text><line x1="670.0" y1="310.0" x2="670.0" y2="278.0" stroke="#C8553D" stroke-width="2.5" marker-end="url(#a)"/><path d="M570,84 C500,160 500,260 586,336" fill="none" stroke="#1F4E79" stroke-width="2" stroke-dasharray="6 4" marker-end="url(#a)"/><text x="780.0" y="200.0" font-size="13" text-anchor="start" fill="#1E2430" font-weight="normal">Promotion goes</text><text x="780.0" y="218.0" font-size="13" text-anchor="start" fill="#1E2430" font-weight="normal">to the consumer;</text><text x="780.0" y="236.0" font-size="13" text-anchor="start" fill="#1E2430" font-weight="normal">demand pulls the</text><text x="780.0" y="254.0" font-size="13" text-anchor="start" fill="#1E2430" font-weight="normal">product up</text></g></svg>