<svg xmlns="http://www.w3.org/2000/svg" viewBox="0 0 940 470" width="940" height="470"><rect width="940" height="470" fill="#FFFFFF"/><g font-family="Segoe UI, Arial, Helvetica, sans-serif" fill="#1D2A38"><defs><marker id="a" viewBox="0 0 10 10" refX="9" refY="5" markerWidth="7" markerHeight="7" orient="auto-start-reverse"><path d="M0,0 L10,5 L0,10 z" fill="#5A6470"/></marker></defs><text x="257.5" y="30" font-size="14.5" fill="#104C4A" text-anchor="middle" font-weight="bold">Raising R raises the plateau, not the pace</text><line x1="85" y1="83.63636363636363" x2="430" y2="83.63636363636363" stroke="#B26B00" stroke-width="1.2" stroke-dasharray="6 4"/><path d="M85.0,340.0 L86.8,333.7 L88.6,327.5 L90.4,321.5 L92.2,315.6 L94.0,309.9 L95.8,304.3 L97.6,298.8 L99.4,293.5 L101.2,288.3 L103.0,283.3 L104.8,278.4 L106.6,273.6 L108.4,268.9 L110.2,264.3 L112.0,259.8 L113.8,255.5 L115.5,251.2 L117.3,247.1 L119.1,243.1 L120.9,239.1 L122.7,235.3 L124.5,231.5 L126.3,227.9 L128.1,224.3 L129.9,220.9 L131.7,217.5 L133.5,214.2 L135.3,210.9 L137.1,207.8 L138.9,204.7 L140.7,201.7 L142.5,198.8 L144.3,196.0 L146.1,193.2 L147.9,190.5 L149.7,187.9 L151.5,185.3 L153.3,182.8 L155.1,180.3 L156.9,177.9 L158.7,175.6 L160.5,173.3 L162.3,171.1 L164.1,169.0 L165.9,166.9 L167.7,164.8 L169.5,162.8 L171.2,160.9 L173.0,158.9 L174.8,157.1 L176.6,155.3 L178.4,153.5 L180.2,151.8 L182.0,150.1 L183.8,148.5 L185.6,146.9 L187.4,145.3 L189.2,143.8 L191.0,142.3 L192.8,140.8 L194.6,139.4 L196.4,138.0 L198.2,136.7 L200.0,135.4 L201.8,134.1 L203.6,132.9 L205.4,131.7 L207.2,130.5 L209.0,129.3 L210.8,128.2 L212.6,127.1 L214.4,126.0 L216.2,125.0 L218.0,123.9 L219.8,123.0 L221.6,122.0 L223.4,121.0 L225.2,120.1 L227.0,119.2 L228.8,118.3 L230.5,117.5 L232.3,116.6 L234.1,115.8 L235.9,115.0 L237.7,114.3 L239.5,113.5 L241.3,112.8 L243.1,112.0 L244.9,111.3 L246.7,110.7 L248.5,110.0 L250.3,109.3 L252.1,108.7 L253.9,108.1 L255.7,107.5 L257.5,106.9 L259.3,106.3 L261.1,105.8 L262.9,105.2 L264.7,104.7 L266.5,104.2 L268.3,103.7 L270.1,103.2 L271.9,102.7 L273.7,102.2 L275.5,101.7 L277.3,101.3 L279.1,100.9 L280.9,100.4 L282.7,100.0 L284.5,99.6 L286.2,99.2 L288.0,98.8 L289.8,98.5 L291.6,98.1 L293.4,97.7 L295.2,97.4 L297.0,97.1 L298.8,96.7 L300.6,96.4 L302.4,96.1 L304.2,95.8 L306.0,95.5 L307.8,95.2 L309.6,94.9 L311.4,94.6 L313.2,94.4 L315.0,94.1 L316.8,93.8 L318.6,93.6 L320.4,93.3 L322.2,93.1 L324.0,92.9 L325.8,92.6 L327.6,92.4 L329.4,92.2 L331.2,92.0 L333.0,91.8 L334.8,91.6 L336.6,91.4 L338.4,91.2 L340.2,91.0 L342.0,90.8 L343.8,90.6 L345.5,90.5 L347.3,90.3 L349.1,90.1 L350.9,90.0 L352.7,89.8 L354.5,89.7 L356.3,89.5 L358.1,89.4 L359.9,89.2 L361.7,89.1 L363.5,89.0 L365.3,88.8 L367.1,88.7 L368.9,88.6 L370.7,88.5 L372.5,88.3 L374.3,88.2 L376.1,88.1 L377.9,88.0 L379.7,87.9 L381.5,87.8 L383.3,87.7 L385.1,87.6 L386.9,87.5 L388.7,87.4 L390.5,87.3 L392.3,87.2 L394.1,87.1 L395.9,87.0 L397.7,86.9 L399.5,86.9 L401.2,86.8 L403.0,86.7 L404.8,86.6 L406.6,86.6 L408.4,86.5 L410.2,86.4 L412.0,86.3 L413.8,86.3 L415.6,86.2 L417.4,86.1 L419.2,86.1 L421.0,86.0 L422.8,86.0 L424.6,85.9 L426.4,85.9 L428.2,85.8 L430.0,85.7" fill="none" stroke="#B26B00" stroke-width="2.6"/><text x="436" y="88.63636363636363" font-size="11.5" fill="#B26B00" text-anchor="start" font-weight="bold">30 mg·h⁻¹</text><line x1="85" y1="211.8181818181818" x2="430" y2="211.8181818181818" stroke="#104C4A" stroke-width="1.2" stroke-dasharray="6 4"/><path d="M85.0,340.0 L86.8,336.8 L88.6,333.7 L90.4,330.7 L92.2,327.8 L94.0,324.9 L95.8,322.1 L97.6,319.4 L99.4,316.8 L101.2,314.2 L103.0,311.6 L104.8,309.2 L106.6,306.8 L108.4,304.4 L110.2,302.1 L112.0,299.9 L113.8,297.7 L115.5,295.6 L117.3,293.6 L119.1,291.5 L120.9,289.6 L122.7,287.6 L124.5,285.8 L126.3,283.9 L128.1,282.2 L129.9,280.4 L131.7,278.7 L133.5,277.1 L135.3,275.5 L137.1,273.9 L138.9,272.4 L140.7,270.9 L142.5,269.4 L144.3,268.0 L146.1,266.6 L147.9,265.3 L149.7,263.9 L151.5,262.6 L153.3,261.4 L155.1,260.2 L156.9,259.0 L158.7,257.8 L160.5,256.7 L162.3,255.6 L164.1,254.5 L165.9,253.4 L167.7,252.4 L169.5,251.4 L171.2,250.4 L173.0,249.5 L174.8,248.5 L176.6,247.6 L178.4,246.8 L180.2,245.9 L182.0,245.0 L183.8,244.2 L185.6,243.4 L187.4,242.6 L189.2,241.9 L191.0,241.1 L192.8,240.4 L194.6,239.7 L196.4,239.0 L198.2,238.4 L200.0,237.7 L201.8,237.1 L203.6,236.4 L205.4,235.8 L207.2,235.2 L209.0,234.7 L210.8,234.1 L212.6,233.5 L214.4,233.0 L216.2,232.5 L218.0,232.0 L219.8,231.5 L221.6,231.0 L223.4,230.5 L225.2,230.1 L227.0,229.6 L228.8,229.2 L230.5,228.7 L232.3,228.3 L234.1,227.9 L235.9,227.5 L237.7,227.1 L239.5,226.7 L241.3,226.4 L243.1,226.0 L244.9,225.7 L246.7,225.3 L248.5,225.0 L250.3,224.7 L252.1,224.4 L253.9,224.0 L255.7,223.7 L257.5,223.4 L259.3,223.2 L261.1,222.9 L262.9,222.6 L264.7,222.3 L266.5,222.1 L268.3,221.8 L270.1,221.6 L271.9,221.3 L273.7,221.1 L275.5,220.9 L277.3,220.7 L279.1,220.4 L280.9,220.2 L282.7,220.0 L284.5,219.8 L286.2,219.6 L288.0,219.4 L289.8,219.2 L291.6,219.0 L293.4,218.9 L295.2,218.7 L297.0,218.5 L298.8,218.4 L300.6,218.2 L302.4,218.0 L304.2,217.9 L306.0,217.7 L307.8,217.6 L309.6,217.5 L311.4,217.3 L313.2,217.2 L315.0,217.0 L316.8,216.9 L318.6,216.8 L320.4,216.7 L322.2,216.5 L324.0,216.4 L325.8,216.3 L327.6,216.2 L329.4,216.1 L331.2,216.0 L333.0,215.9 L334.8,215.8 L336.6,215.7 L338.4,215.6 L340.2,215.5 L342.0,215.4 L343.8,215.3 L345.5,215.2 L347.3,215.1 L349.1,215.1 L350.9,215.0 L352.7,214.9 L354.5,214.8 L356.3,214.8 L358.1,214.7 L359.9,214.6 L361.7,214.5 L363.5,214.5 L365.3,214.4 L367.1,214.3 L368.9,214.3 L370.7,214.2 L372.5,214.2 L374.3,214.1 L376.1,214.1 L377.9,214.0 L379.7,213.9 L381.5,213.9 L383.3,213.8 L385.1,213.8 L386.9,213.7 L388.7,213.7 L390.5,213.6 L392.3,213.6 L394.1,213.6 L395.9,213.5 L397.7,213.5 L399.5,213.4 L401.2,213.4 L403.0,213.4 L404.8,213.3 L406.6,213.3 L408.4,213.2 L410.2,213.2 L412.0,213.2 L413.8,213.1 L415.6,213.1 L417.4,213.1 L419.2,213.0 L421.0,213.0 L422.8,213.0 L424.6,213.0 L426.4,212.9 L428.2,212.9 L430.0,212.9" fill="none" stroke="#104C4A" stroke-width="2.6"/><text x="436" y="216.8181818181818" font-size="11.5" fill="#104C4A" text-anchor="start" font-weight="bold">15 mg·h⁻¹</text><line x1="85" y1="275.9090909090909" x2="430" y2="275.9090909090909" stroke="#5A6470" stroke-width="1.2" stroke-dasharray="6 4"/><path d="M85.0,340.0 L86.8,338.4 L88.6,336.9 L90.4,335.4 L92.2,333.9 L94.0,332.5 L95.8,331.1 L97.6,329.7 L99.4,328.4 L101.2,327.1 L103.0,325.8 L104.8,324.6 L106.6,323.4 L108.4,322.2 L110.2,321.1 L112.0,320.0 L113.8,318.9 L115.5,317.8 L117.3,316.8 L119.1,315.8 L120.9,314.8 L122.7,313.8 L124.5,312.9 L126.3,312.0 L128.1,311.1 L129.9,310.2 L131.7,309.4 L133.5,308.5 L135.3,307.7 L137.1,306.9 L138.9,306.2 L140.7,305.4 L142.5,304.7 L144.3,304.0 L146.1,303.3 L147.9,302.6 L149.7,302.0 L151.5,301.3 L153.3,300.7 L155.1,300.1 L156.9,299.5 L158.7,298.9 L160.5,298.3 L162.3,297.8 L164.1,297.2 L165.9,296.7 L167.7,296.2 L169.5,295.7 L171.2,295.2 L173.0,294.7 L174.8,294.3 L176.6,293.8 L178.4,293.4 L180.2,292.9 L182.0,292.5 L183.8,292.1 L185.6,291.7 L187.4,291.3 L189.2,290.9 L191.0,290.6 L192.8,290.2 L194.6,289.9 L196.4,289.5 L198.2,289.2 L200.0,288.8 L201.8,288.5 L203.6,288.2 L205.4,287.9 L207.2,287.6 L209.0,287.3 L210.8,287.0 L212.6,286.8 L214.4,286.5 L216.2,286.2 L218.0,286.0 L219.8,285.7 L221.6,285.5 L223.4,285.3 L225.2,285.0 L227.0,284.8 L228.8,284.6 L230.5,284.4 L232.3,284.2 L234.1,284.0 L235.9,283.8 L237.7,283.6 L239.5,283.4 L241.3,283.2 L243.1,283.0 L244.9,282.8 L246.7,282.7 L248.5,282.5 L250.3,282.3 L252.1,282.2 L253.9,282.0 L255.7,281.9 L257.5,281.7 L259.3,281.6 L261.1,281.4 L262.9,281.3 L264.7,281.2 L266.5,281.0 L268.3,280.9 L270.1,280.8 L271.9,280.7 L273.7,280.6 L275.5,280.4 L277.3,280.3 L279.1,280.2 L280.9,280.1 L282.7,280.0 L284.5,279.9 L286.2,279.8 L288.0,279.7 L289.8,279.6 L291.6,279.5 L293.4,279.4 L295.2,279.3 L297.0,279.3 L298.8,279.2 L300.6,279.1 L302.4,279.0 L304.2,278.9 L306.0,278.9 L307.8,278.8 L309.6,278.7 L311.4,278.7 L313.2,278.6 L315.0,278.5 L316.8,278.5 L318.6,278.4 L320.4,278.3 L322.2,278.3 L324.0,278.2 L325.8,278.2 L327.6,278.1 L329.4,278.0 L331.2,278.0 L333.0,277.9 L334.8,277.9 L336.6,277.8 L338.4,277.8 L340.2,277.8 L342.0,277.7 L343.8,277.7 L345.5,277.6 L347.3,277.6 L349.1,277.5 L350.9,277.5 L352.7,277.5 L354.5,277.4 L356.3,277.4 L358.1,277.3 L359.9,277.3 L361.7,277.3 L363.5,277.2 L365.3,277.2 L367.1,277.2 L368.9,277.1 L370.7,277.1 L372.5,277.1 L374.3,277.1 L376.1,277.0 L377.9,277.0 L379.7,277.0 L381.5,276.9 L383.3,276.9 L385.1,276.9 L386.9,276.9 L388.7,276.8 L390.5,276.8 L392.3,276.8 L394.1,276.8 L395.9,276.8 L397.7,276.7 L399.5,276.7 L401.2,276.7 L403.0,276.7 L404.8,276.7 L406.6,276.6 L408.4,276.6 L410.2,276.6 L412.0,276.6 L413.8,276.6 L415.6,276.6 L417.4,276.5 L419.2,276.5 L421.0,276.5 L422.8,276.5 L424.6,276.5 L426.4,276.5 L428.2,276.4 L430.0,276.4" fill="none" stroke="#5A6470" stroke-width="2.6"/><text x="436" y="280.9090909090909" font-size="11.5" fill="#5A6470" text-anchor="start" font-weight="bold">7.5 mg·h⁻¹</text><line x1="300.1764999999999" y1="52" x2="300.1764999999999" y2="340" stroke="#1D2A38" stroke-width="1.4" stroke-dasharray="3 4"/><text x="300.1764999999999" y="46" font-size="12" fill="#1D2A38" text-anchor="middle" stroke="#FFFFFF" stroke-width="4" paint-order="stroke">95% of Css at 15 h</text><circle cx="300.2" cy="96.5" r="4.5" fill="#B26B00"/><circle cx="300.2" cy="218.2" r="4.5" fill="#104C4A"/><circle cx="300.2" cy="279.1" r="4.5" fill="#5A6470"/><line x1="85" y1="52" x2="85" y2="340" stroke="#1D2A38" stroke-width="2"/><line x1="85" y1="340" x2="460" y2="340" stroke="#1D2A38" stroke-width="2"/><text x="29" y="199.0" font-size="15" fill="#1D2A38" text-anchor="middle" transform="rotate(-90 29 199.0)">Cp  (µg·mL⁻¹)</text><text x="257.5" y="388" font-size="15" fill="#1D2A38" text-anchor="middle">Time (h)</text><text x="77" y="345.0" font-size="12" fill="#1D2A38" text-anchor="end">0</text><text x="77" y="280.9090909090909" font-size="12" fill="#1D2A38" text-anchor="end">5</text><text x="77" y="216.8181818181818" font-size="12" fill="#1D2A38" text-anchor="end">10</text><text x="77" y="152.72727272727272" font-size="12" fill="#1D2A38" text-anchor="end">15</text><text x="77" y="88.63636363636363" font-size="12" fill="#1D2A38" text-anchor="end">20</text><text x="85.0" y="360" font-size="12" fill="#1D2A38" text-anchor="middle">0</text><text x="171.25" y="360" font-size="12" fill="#1D2A38" text-anchor="middle">6</text><text x="257.5" y="360" font-size="12" fill="#1D2A38" text-anchor="middle">12</text><text x="343.75" y="360" font-size="12" fill="#1D2A38" text-anchor="middle">18</text><text x="430.0" y="360" font-size="12" fill="#1D2A38" text-anchor="middle">24</text><text x="257.5" y="414" font-size="12" fill="#5A6470" text-anchor="middle">All three curves are 95% of the way up at the same moment.</text><text x="745.0" y="30" font-size="14.5" fill="#104C4A" text-anchor="middle" font-weight="bold">A loading dose removes the climb</text><line x1="600" y1="163.75" x2="890" y2="163.75" stroke="#5A6470" stroke-width="1.2" stroke-dasharray="6 4"/><text x="896" y="168.75" font-size="12" fill="#5A6470" text-anchor="start" font-weight="bold">Css</text><path d="M600.0,75.6 L601.5,77.8 L603.0,79.9 L604.5,82.0 L606.0,84.0 L607.6,86.0 L609.1,87.9 L610.6,89.8 L612.1,91.6 L613.6,93.4 L615.1,95.1 L616.6,96.8 L618.1,98.5 L619.6,100.1 L621.1,101.6 L622.7,103.2 L624.2,104.7 L625.7,106.1 L627.2,107.6 L628.7,108.9 L630.2,110.3 L631.7,111.6 L633.2,112.9 L634.7,114.2 L636.2,115.4 L637.8,116.6 L639.3,117.7 L640.8,118.9 L642.3,120.0 L643.8,121.1 L645.3,122.1 L646.8,123.2 L648.3,124.2 L649.8,125.1 L651.4,126.1 L652.9,127.0 L654.4,127.9 L655.9,128.8 L657.4,129.7 L658.9,130.5 L660.4,131.3 L661.9,132.1 L663.4,132.9 L664.9,133.7 L666.5,134.4 L668.0,135.1 L669.5,135.8 L671.0,136.5 L672.5,137.2 L674.0,137.9 L675.5,138.5 L677.0,139.1 L678.5,139.7 L680.1,140.3 L681.6,140.9 L683.1,141.5 L684.6,142.0 L686.1,142.6 L687.6,143.1 L689.1,143.6 L690.6,144.1 L692.1,144.6 L693.6,145.0 L695.2,145.5 L696.7,146.0 L698.2,146.4 L699.7,146.8 L701.2,147.2 L702.7,147.7 L704.2,148.0 L705.7,148.4 L707.2,148.8 L708.8,149.2 L710.3,149.5 L711.8,149.9 L713.3,150.2 L714.8,150.6 L716.3,150.9 L717.8,151.2 L719.3,151.5 L720.8,151.8 L722.3,152.1 L723.9,152.4 L725.4,152.7 L726.9,153.0 L728.4,153.2 L729.9,153.5 L731.4,153.7 L732.9,154.0 L734.4,154.2 L735.9,154.5 L737.4,154.7 L739.0,154.9 L740.5,155.1 L742.0,155.3 L743.5,155.6 L745.0,155.8 L746.5,156.0 L748.0,156.1 L749.5,156.3 L751.0,156.5 L752.6,156.7 L754.1,156.9 L755.6,157.0 L757.1,157.2 L758.6,157.4 L760.1,157.5 L761.6,157.7 L763.1,157.8 L764.6,158.0 L766.1,158.1 L767.7,158.3 L769.2,158.4 L770.7,158.5 L772.2,158.7 L773.7,158.8 L775.2,158.9 L776.7,159.0 L778.2,159.1 L779.7,159.3 L781.2,159.4 L782.8,159.5 L784.3,159.6 L785.8,159.7 L787.3,159.8 L788.8,159.9 L790.3,160.0 L791.8,160.1 L793.3,160.2 L794.8,160.2 L796.4,160.3 L797.9,160.4 L799.4,160.5 L800.9,160.6 L802.4,160.7 L803.9,160.7 L805.4,160.8 L806.9,160.9 L808.4,161.0 L809.9,161.0 L811.5,161.1 L813.0,161.2 L814.5,161.2 L816.0,161.3 L817.5,161.3 L819.0,161.4 L820.5,161.5 L822.0,161.5 L823.5,161.6 L825.1,161.6 L826.6,161.7 L828.1,161.7 L829.6,161.8 L831.1,161.8 L832.6,161.9 L834.1,161.9 L835.6,162.0 L837.1,162.0 L838.6,162.1 L840.2,162.1 L841.7,162.1 L843.2,162.2 L844.7,162.2 L846.2,162.3 L847.7,162.3 L849.2,162.3 L850.7,162.4 L852.2,162.4 L853.8,162.4 L855.3,162.5 L856.8,162.5 L858.3,162.5 L859.8,162.6 L861.3,162.6 L862.8,162.6 L864.3,162.6 L865.8,162.7 L867.3,162.7 L868.9,162.7 L870.4,162.7 L871.9,162.8 L873.4,162.8 L874.9,162.8 L876.4,162.8 L877.9,162.9 L879.4,162.9 L880.9,162.9 L882.4,162.9 L884.0,162.9 L885.5,163.0 L887.0,163.0 L888.5,163.0 L890.0,163.0" fill="none" stroke="#B26B00" stroke-width="2.6"/><path d="M600.0,163.8 L601.5,163.8 L603.0,163.8 L604.5,163.8 L606.0,163.8 L607.6,163.8 L609.1,163.8 L610.6,163.8 L612.1,163.8 L613.6,163.8 L615.1,163.8 L616.6,163.8 L618.1,163.8 L619.6,163.8 L621.1,163.8 L622.7,163.8 L624.2,163.8 L625.7,163.8 L627.2,163.8 L628.7,163.8 L630.2,163.8 L631.7,163.8 L633.2,163.8 L634.7,163.8 L636.2,163.8 L637.8,163.8 L639.3,163.8 L640.8,163.8 L642.3,163.8 L643.8,163.8 L645.3,163.8 L646.8,163.8 L648.3,163.8 L649.8,163.8 L651.4,163.8 L652.9,163.8 L654.4,163.8 L655.9,163.8 L657.4,163.8 L658.9,163.8 L660.4,163.8 L661.9,163.8 L663.4,163.8 L664.9,163.8 L666.5,163.8 L668.0,163.8 L669.5,163.8 L671.0,163.8 L672.5,163.8 L674.0,163.8 L675.5,163.8 L677.0,163.8 L678.5,163.8 L680.1,163.8 L681.6,163.8 L683.1,163.8 L684.6,163.8 L686.1,163.8 L687.6,163.8 L689.1,163.8 L690.6,163.8 L692.1,163.8 L693.6,163.8 L695.2,163.8 L696.7,163.8 L698.2,163.8 L699.7,163.8 L701.2,163.8 L702.7,163.8 L704.2,163.8 L705.7,163.8 L707.2,163.8 L708.8,163.8 L710.3,163.8 L711.8,163.8 L713.3,163.8 L714.8,163.8 L716.3,163.8 L717.8,163.8 L719.3,163.8 L720.8,163.8 L722.3,163.8 L723.9,163.8 L725.4,163.8 L726.9,163.8 L728.4,163.8 L729.9,163.8 L731.4,163.8 L732.9,163.8 L734.4,163.8 L735.9,163.8 L737.4,163.8 L739.0,163.8 L740.5,163.8 L742.0,163.8 L743.5,163.8 L745.0,163.8 L746.5,163.8 L748.0,163.8 L749.5,163.8 L751.0,163.8 L752.6,163.8 L754.1,163.8 L755.6,163.8 L757.1,163.8 L758.6,163.8 L760.1,163.8 L761.6,163.8 L763.1,163.8 L764.6,163.8 L766.1,163.8 L767.7,163.8 L769.2,163.8 L770.7,163.8 L772.2,163.8 L773.7,163.8 L775.2,163.8 L776.7,163.8 L778.2,163.8 L779.7,163.8 L781.2,163.8 L782.8,163.8 L784.3,163.8 L785.8,163.8 L787.3,163.8 L788.8,163.8 L790.3,163.8 L791.8,163.8 L793.3,163.7 L794.8,163.8 L796.4,163.8 L797.9,163.8 L799.4,163.8 L800.9,163.8 L802.4,163.8 L803.9,163.8 L805.4,163.8 L806.9,163.7 L808.4,163.7 L809.9,163.8 L811.5,163.8 L813.0,163.8 L814.5,163.8 L816.0,163.8 L817.5,163.8 L819.0,163.8 L820.5,163.8 L822.0,163.8 L823.5,163.8 L825.1,163.8 L826.6,163.8 L828.1,163.8 L829.6,163.8 L831.1,163.8 L832.6,163.8 L834.1,163.8 L835.6,163.8 L837.1,163.8 L838.6,163.8 L840.2,163.8 L841.7,163.8 L843.2,163.7 L844.7,163.8 L846.2,163.8 L847.7,163.8 L849.2,163.8 L850.7,163.8 L852.2,163.8 L853.8,163.8 L855.3,163.8 L856.8,163.8 L858.3,163.7 L859.8,163.8 L861.3,163.8 L862.8,163.8 L864.3,163.8 L865.8,163.8 L867.3,163.8 L868.9,163.8 L870.4,163.8 L871.9,163.8 L873.4,163.8 L874.9,163.8 L876.4,163.8 L877.9,163.8 L879.4,163.8 L880.9,163.8 L882.4,163.8 L884.0,163.8 L885.5,163.8 L887.0,163.8 L888.5,163.7 L890.0,163.8" fill="none" stroke="#104C4A" stroke-width="2.6"/><path d="M600.0,340.0 L601.5,335.6 L603.0,331.4 L604.5,327.3 L606.0,323.2 L607.6,319.3 L609.1,315.4 L610.6,311.7 L612.1,308.1 L613.6,304.5 L615.1,301.0 L616.6,297.6 L618.1,294.3 L619.6,291.1 L621.1,288.0 L622.7,284.9 L624.2,281.9 L625.7,279.0 L627.2,276.1 L628.7,273.4 L630.2,270.7 L631.7,268.0 L633.2,265.4 L634.7,262.9 L636.2,260.5 L637.8,258.1 L639.3,255.8 L640.8,253.5 L642.3,251.3 L643.8,249.1 L645.3,247.0 L646.8,244.9 L648.3,242.9 L649.8,241.0 L651.4,239.1 L652.9,237.2 L654.4,235.4 L655.9,233.6 L657.4,231.9 L658.9,230.2 L660.4,228.6 L661.9,227.0 L663.4,225.4 L664.9,223.9 L666.5,222.4 L668.0,221.0 L669.5,219.6 L671.0,218.2 L672.5,216.8 L674.0,215.5 L675.5,214.2 L677.0,213.0 L678.5,211.8 L680.1,210.6 L681.6,209.4 L683.1,208.3 L684.6,207.2 L686.1,206.1 L687.6,205.1 L689.1,204.1 L690.6,203.1 L692.1,202.1 L693.6,201.2 L695.2,200.2 L696.7,199.3 L698.2,198.5 L699.7,197.6 L701.2,196.8 L702.7,195.9 L704.2,195.2 L705.7,194.4 L707.2,193.6 L708.8,192.9 L710.3,192.2 L711.8,191.5 L713.3,190.8 L714.8,190.1 L716.3,189.5 L717.8,188.8 L719.3,188.2 L720.8,187.6 L722.3,187.0 L723.9,186.4 L725.4,185.9 L726.9,185.3 L728.4,184.8 L729.9,184.3 L731.4,183.8 L732.9,183.3 L734.4,182.8 L735.9,182.3 L737.4,181.9 L739.0,181.4 L740.5,181.0 L742.0,180.6 L743.5,180.1 L745.0,179.7 L746.5,179.3 L748.0,179.0 L749.5,178.6 L751.0,178.2 L752.6,177.9 L754.1,177.5 L755.6,177.2 L757.1,176.8 L758.6,176.5 L760.1,176.2 L761.6,175.9 L763.1,175.6 L764.6,175.3 L766.1,175.0 L767.7,174.7 L769.2,174.5 L770.7,174.2 L772.2,173.9 L773.7,173.7 L775.2,173.4 L776.7,173.2 L778.2,173.0 L779.7,172.7 L781.2,172.5 L782.8,172.3 L784.3,172.1 L785.8,171.9 L787.3,171.7 L788.8,171.5 L790.3,171.3 L791.8,171.1 L793.3,170.9 L794.8,170.8 L796.4,170.6 L797.9,170.4 L799.4,170.3 L800.9,170.1 L802.4,169.9 L803.9,169.8 L805.4,169.6 L806.9,169.5 L808.4,169.3 L809.9,169.2 L811.5,169.1 L813.0,168.9 L814.5,168.8 L816.0,168.7 L817.5,168.6 L819.0,168.4 L820.5,168.3 L822.0,168.2 L823.5,168.1 L825.1,168.0 L826.6,167.9 L828.1,167.8 L829.6,167.7 L831.1,167.6 L832.6,167.5 L834.1,167.4 L835.6,167.3 L837.1,167.2 L838.6,167.1 L840.2,167.1 L841.7,167.0 L843.2,166.9 L844.7,166.8 L846.2,166.7 L847.7,166.7 L849.2,166.6 L850.7,166.5 L852.2,166.5 L853.8,166.4 L855.3,166.3 L856.8,166.3 L858.3,166.2 L859.8,166.1 L861.3,166.1 L862.8,166.0 L864.3,166.0 L865.8,165.9 L867.3,165.9 L868.9,165.8 L870.4,165.8 L871.9,165.7 L873.4,165.7 L874.9,165.6 L876.4,165.6 L877.9,165.5 L879.4,165.5 L880.9,165.4 L882.4,165.4 L884.0,165.4 L885.5,165.3 L887.0,165.3 L888.5,165.2 L890.0,165.2" fill="none" stroke="#5A6470" stroke-width="2.6"/><text x="714.7916666666666" y="87.96249999999998" font-size="11.5" fill="#B26B00" text-anchor="start" font-weight="bold">loading dose too large</text><text x="714.7916666666666" y="140.83749999999998" font-size="11.5" fill="#104C4A" text-anchor="start" font-weight="bold" stroke="#FFFFFF" stroke-width="4" paint-order="stroke">Dₗ = Css · Vd  —  flat from t = 0</text><text x="714.7916666666666" y="258.925" font-size="11.5" fill="#5A6470" text-anchor="start" font-weight="bold">no loading dose</text><line x1="600" y1="52" x2="600" y2="340" stroke="#1D2A38" stroke-width="2"/><line x1="600" y1="340" x2="920" y2="340" stroke="#1D2A38" stroke-width="2"/><text x="544" y="199.0" font-size="15" fill="#1D2A38" text-anchor="middle" transform="rotate(-90 544 199.0)">Cp  (µg·mL⁻¹)</text><text x="745.0" y="388" font-size="15" fill="#1D2A38" text-anchor="middle">Time (h)</text><text x="592" y="345.0" font-size="12" fill="#1D2A38" text-anchor="end">0</text><text x="592" y="256.875" font-size="12" fill="#1D2A38" text-anchor="end">5</text><text x="592" y="168.75" font-size="12" fill="#1D2A38" text-anchor="end">10</text><text x="592" y="80.625" font-size="12" fill="#1D2A38" text-anchor="end">15</text><text x="600.0" y="360" font-size="12" fill="#1D2A38" text-anchor="middle">0</text><text x="672.5" y="360" font-size="12" fill="#1D2A38" text-anchor="middle">6</text><text x="745.0" y="360" font-size="12" fill="#1D2A38" text-anchor="middle">12</text><text x="817.5" y="360" font-size="12" fill="#1D2A38" text-anchor="middle">18</text><text x="890.0" y="360" font-size="12" fill="#1D2A38" text-anchor="middle">24</text><text x="745.0" y="414" font-size="12" fill="#5A6470" text-anchor="middle">The bolus decays exactly as fast as the infusion accumulates.</text><text x="470.0" y="456" font-size="12" fill="#5A6470" text-anchor="middle">K = 0.2 h⁻¹, t½ = 3.47 h, Vd = 7.5 L throughout.</text></g></svg>